<?xml version="1.0" encoding="utf-8" ?>
<svg baseProfile="full" height="1800" version="1.1" viewBox="0 0 1600 1800" width="1600" xmlns="http://www.w3.org/2000/svg" xmlns:ev="http://www.w3.org/2001/xml-events" xmlns:xlink="http://www.w3.org/1999/xlink"><defs><linearGradient id="shieldBorder" x1="0" x2="1" y1="0" y2="1"><stop offset="0.0" stop-color="#F6FAFF" stop-opacity="1.0" /><stop offset="0.35" stop-color="#D9E3F0" stop-opacity="1.0" /><stop offset="0.72" stop-color="#7D8AA0" stop-opacity="1.0" /><stop offset="1.0" stop-color="#F6FAFF" stop-opacity="1.0" /></linearGradient><linearGradient id="shieldFill" x1="0" x2="0" y1="0" y2="1"><stop offset="0.0" stop-color="#14244E" stop-opacity="1.0" /><stop offset="0.55" stop-color="#0B1737" stop-opacity="1.0" /><stop offset="1.0" stop-color="#071227" stop-opacity="1.0" /></linearGradient><linearGradient id="walletFill" x1="0" x2="1" y1="0" y2="1"><stop offset="0.0" stop-color="#253C73" stop-opacity="1.0" /><stop offset="0.55" stop-color="#0B1737" stop-opacity="1.0" /><stop offset="1.0" stop-color="#071227" stop-opacity="1.0" /></linearGradient><linearGradient id="walletEdge" x1="0" x2="1" y1="0" y2="1"><stop offset="0.0" stop-color="#F6FAFF" stop-opacity="1.0" /><stop offset="0.55" stop-color="#AAB7CB" stop-opacity="1.0" /><stop offset="1.0" stop-color="#7D8AA0" stop-opacity="1.0" /></linearGradient><linearGradient id="coinFill" x1="0" x2="1" y1="0" y2="1"><stop offset="0.0" stop-color="#FFE8A0" stop-opacity="1.0" /><stop offset="0.48" stop-color="#F3BE3B" stop-opacity="1.0" /><stop offset="1.0" stop-color="#B47B12" stop-opacity="1.0" /></linearGradient><linearGradient id="barFill" x1="0" x2="0" y1="0" y2="1"><stop offset="0.0" stop-color="#77C6FF" stop-opacity="1.0" /><stop offset="1.0" stop-color="#33A6FF" stop-opacity="1.0" /></linearGradient><radialGradient cx="50%" cy="50%" id="goldGlow" r="60%"><stop offset="0.0" stop-color="#FFE8A0" stop-opacity="0.42" /><stop offset="1.0" stop-color="#FFE8A0" stop-opacity="0.0" /></radialGradient><clipPath id="shieldClip_color_560_1460"><path d="M 0 -271.04 C 113.34400000000001 -254.7776, 246.4 -216.83200000000002, 246.4 -135.52 L 246.4 54.208000000000006 C 246.4 195.1488, 98.56 254.7776, 0 271.04 C -98.56 254.7776, -246.4 195.1488, -246.4 54.208000000000006 L -246.4 -135.52 C -246.4 -216.83200000000002, -113.34400000000001 -254.7776, 0 -271.04 Z" /></clipPath></defs><rect fill="none" height="1800" width="1600" x="0" y="0" /><g transform="translate(800,660)"><path d="M 0 -308.0 C 128.8 -289.52, 280.0 -246.4, 280.0 -154.0 L 280.0 61.6 C 280.0 221.76, 112.0 289.52, 0 308.0 C -112.0 289.52, -280.0 221.76, -280.0 61.6 L -280.0 -154.0 C -280.0 -246.4, -128.8 -289.52, 0 -308.0 Z" fill="url(#shieldBorder)" /><path d="M 0 -271.04 C 113.34400000000001 -254.7776, 246.4 -216.83200000000002, 246.4 -135.52 L 246.4 54.208000000000006 C 246.4 195.1488, 98.56 254.7776, 0 271.04 C -98.56 254.7776, -246.4 195.1488, -246.4 54.208000000000006 L -246.4 -135.52 C -246.4 -216.83200000000002, -113.34400000000001 -254.7776, 0 -271.04 Z" fill="url(#shieldFill)" /><path d="M -168.0 -166.32000000000002 C -61.6 -240.24, 44.800000000000004 -240.24, 145.6 -190.96" fill="none" opacity="0.24" stroke="#F6FAFF" stroke-linecap="round" stroke-width="21.28" /><g clip-path="url(#shieldClip_color_560_1460)"><rect fill="url(#barFill)" height="98.56" rx="8.96" width="44.800000000000004" x="-162.39999999999998" y="-98.56" /><rect fill="url(#barFill)" height="147.84" rx="8.96" width="44.800000000000004" x="-100.79999999999998" y="-123.2" /><rect fill="url(#barFill)" height="209.44000000000003" rx="8.96" width="44.800000000000004" x="-39.199999999999974" y="-154.0" /><circle cx="95.2" cy="-55.44" fill="url(#goldGlow)" r="105.55999999999999" /><circle cx="95.2" cy="-55.44" fill="url(#coinFill)" r="81.19999999999999" /><circle cx="95.2" cy="-55.44" fill="none" opacity="0.45" r="60.087999999999994" stroke="#B47B12" stroke-width="9.520000000000001" /><text fill="#B47B12" font-family="Inter, Avenir Next, Segoe UI, Arial, sans-serif" font-size="89.32" font-weight="700" opacity="0.82" text-anchor="middle" x="95.2" y="-35.952">$</text><rect fill="url(#walletFill)" height="209.44000000000003" rx="33.6" stroke="url(#walletEdge)" stroke-width="11.200000000000001" width="336.0" x="-145.6" y="6.16" /><line opacity="0.45" stroke="#F6FAFF" stroke-linecap="round" stroke-width="7.84" x1="-134.4" x2="173.6" y1="27.104000000000003" y2="27.104000000000003" /><rect fill="url(#walletEdge)" height="92.39999999999999" rx="28.0" stroke="url(#walletEdge)" stroke-width="6.72" width="145.6" x="62.72" y="102.50240000000001" /><circle cx="167.552" cy="148.7024" fill="#071227" r="17.92" /><rect fill="url(#coinFill)" height="52.36000000000001" opacity="0.95" rx="5.6000000000000005" width="61.6" x="-100.79999999999998" y="131.824" /><line opacity="0.45" stroke="#B47B12" stroke-width="3.36" x1="-69.99999999999999" x2="-69.99999999999999" y1="138.1072" y2="177.9008" /><line opacity="0.45" stroke="#B47B12" stroke-width="3.36" x1="-93.40799999999999" x2="-46.591999999999985" y1="158.00400000000002" y2="158.00400000000002" /></g><path d="M 0 -271.04 C 113.34400000000001 -254.7776, 246.4 -216.83200000000002, 246.4 -135.52 L 246.4 54.208000000000006 C 246.4 195.1488, 98.56 254.7776, 0 271.04 C -98.56 254.7776, -246.4 195.1488, -246.4 54.208000000000006 L -246.4 -135.52 C -246.4 -216.83200000000002, -113.34400000000001 -254.7776, 0 -271.04 Z" fill="none" opacity="0.68" stroke="#F6FAFF" stroke-width="8.96" /></g><g transform="translate(800,1280)"><text fill="#F6FAFF" font-family="Inter, Avenir Next, Segoe UI, Arial, sans-serif" font-size="156.8" font-weight="700" letter-spacing="1.568" text-anchor="middle" x="0" y="0">VaultSpend</text><text fill="#C9D4E6" font-family="Inter, Avenir Next, Segoe UI, Arial, sans-serif" font-size="50.96" font-weight="500" letter-spacing="15.288" opacity="0.88" text-anchor="middle" x="0" y="122.30400000000002">SECURE EXPENSE TRACKER</text></g></svg>