<?xml version="1.0" encoding="utf-8" ?>
<svg baseProfile="full" height="1100" version="1.1" viewBox="0 0 2400 1100" width="2400" xmlns="http://www.w3.org/2000/svg" xmlns:ev="http://www.w3.org/2001/xml-events" xmlns:xlink="http://www.w3.org/1999/xlink"><defs><linearGradient id="shieldBorder" x1="0" x2="1" y1="0" y2="1"><stop offset="0.0" stop-color="#F6FAFF" stop-opacity="1.0" /><stop offset="0.35" stop-color="#D9E3F0" stop-opacity="1.0" /><stop offset="0.72" stop-color="#7D8AA0" stop-opacity="1.0" /><stop offset="1.0" stop-color="#F6FAFF" stop-opacity="1.0" /></linearGradient><linearGradient id="shieldFill" x1="0" x2="0" y1="0" y2="1"><stop offset="0.0" stop-color="#14244E" stop-opacity="1.0" /><stop offset="0.55" stop-color="#0B1737" stop-opacity="1.0" /><stop offset="1.0" stop-color="#071227" stop-opacity="1.0" /></linearGradient><linearGradient id="walletFill" x1="0" x2="1" y1="0" y2="1"><stop offset="0.0" stop-color="#253C73" stop-opacity="1.0" /><stop offset="0.55" stop-color="#0B1737" stop-opacity="1.0" /><stop offset="1.0" stop-color="#071227" stop-opacity="1.0" /></linearGradient><linearGradient id="walletEdge" x1="0" x2="1" y1="0" y2="1"><stop offset="0.0" stop-color="#F6FAFF" stop-opacity="1.0" /><stop offset="0.55" stop-color="#AAB7CB" stop-opacity="1.0" /><stop offset="1.0" stop-color="#7D8AA0" stop-opacity="1.0" /></linearGradient><linearGradient id="coinFill" x1="0" x2="1" y1="0" y2="1"><stop offset="0.0" stop-color="#FFE8A0" stop-opacity="1.0" /><stop offset="0.48" stop-color="#F3BE3B" stop-opacity="1.0" /><stop offset="1.0" stop-color="#B47B12" stop-opacity="1.0" /></linearGradient><linearGradient id="barFill" x1="0" x2="0" y1="0" y2="1"><stop offset="0.0" stop-color="#77C6FF" stop-opacity="1.0" /><stop offset="1.0" stop-color="#33A6FF" stop-opacity="1.0" /></linearGradient><radialGradient cx="50%" cy="50%" id="goldGlow" r="60%"><stop offset="0.0" stop-color="#FFE8A0" stop-opacity="0.42" /><stop offset="1.0" stop-color="#FFE8A0" stop-opacity="0.0" /></radialGradient><clipPath id="shieldClip_color_430_990"><path d="M 0 -208.12000000000003 C 87.032 -195.63280000000003, 189.2 -166.49600000000004, 189.2 -104.06000000000002 L 189.2 41.62400000000001 C 189.2 149.84640000000002, 75.67999999999999 195.63280000000003, 0 208.12000000000003 C -75.67999999999999 195.63280000000003, -189.2 149.84640000000002, -189.2 41.62400000000001 L -189.2 -104.06000000000002 C -189.2 -166.49600000000004, -87.032 -195.63280000000003, 0 -208.12000000000003 Z" /></clipPath></defs><rect fill="none" height="1100" width="2400" x="0" y="0" /><g transform="translate(450,540)"><path d="M 0 -236.50000000000003 C 98.9 -222.31000000000003, 215.0 -189.20000000000002, 215.0 -118.25000000000001 L 215.0 47.30000000000001 C 215.0 170.28, 86.0 222.31000000000003, 0 236.50000000000003 C -86.0 222.31000000000003, -215.0 170.28, -215.0 47.30000000000001 L -215.0 -118.25000000000001 C -215.0 -189.20000000000002, -98.9 -222.31000000000003, 0 -236.50000000000003 Z" fill="url(#shieldBorder)" /><path d="M 0 -208.12000000000003 C 87.032 -195.63280000000003, 189.2 -166.49600000000004, 189.2 -104.06000000000002 L 189.2 41.62400000000001 C 189.2 149.84640000000002, 75.67999999999999 195.63280000000003, 0 208.12000000000003 C -75.67999999999999 195.63280000000003, -189.2 149.84640000000002, -189.2 41.62400000000001 L -189.2 -104.06000000000002 C -189.2 -166.49600000000004, -87.032 -195.63280000000003, 0 -208.12000000000003 Z" fill="url(#shieldFill)" /><path d="M -129.0 -127.71000000000002 C -47.3 -184.47000000000003, 34.4 -184.47000000000003, 111.8 -146.63000000000002" fill="none" opacity="0.24" stroke="#F6FAFF" stroke-linecap="round" stroke-width="16.34" /><g clip-path="url(#shieldClip_color_430_990)"><rect fill="url(#barFill)" height="75.68" rx="6.88" width="34.4" x="-124.69999999999999" y="-75.68" /><rect fill="url(#barFill)" height="113.52000000000001" rx="6.88" width="34.4" x="-77.39999999999999" y="-94.60000000000001" /><rect fill="url(#barFill)" height="160.82000000000002" rx="6.88" width="34.4" x="-30.099999999999994" y="-118.25000000000001" /><circle cx="73.10000000000001" cy="-42.57" fill="url(#goldGlow)" r="81.05499999999999" /><circle cx="73.10000000000001" cy="-42.57" fill="url(#coinFill)" r="62.349999999999994" /><circle cx="73.10000000000001" cy="-42.57" fill="none" opacity="0.45" r="46.138999999999996" stroke="#B47B12" stroke-width="7.3100000000000005" /><text fill="#B47B12" font-family="Inter, Avenir Next, Segoe UI, Arial, sans-serif" font-size="68.585" font-weight="700" opacity="0.82" text-anchor="middle" x="73.10000000000001" y="-27.606">$</text><rect fill="url(#walletFill)" height="160.82000000000002" rx="25.8" stroke="url(#walletEdge)" stroke-width="8.6" width="258.0" x="-111.8" y="4.73" /><line opacity="0.45" stroke="#F6FAFF" stroke-linecap="round" stroke-width="6.0200000000000005" x1="-103.2" x2="133.29999999999998" y1="20.812000000000005" y2="20.812000000000005" /><rect fill="url(#walletEdge)" height="70.95" rx="21.5" stroke="url(#walletEdge)" stroke-width="5.16" width="111.8" x="48.16000000000001" y="78.70720000000001" /><circle cx="128.656" cy="114.18220000000002" fill="#071227" r="13.76" /><rect fill="url(#coinFill)" height="40.205000000000005" opacity="0.95" rx="4.3" width="47.3" x="-77.4" y="101.22200000000001" /><line opacity="0.45" stroke="#B47B12" stroke-width="2.58" x1="-53.75000000000001" x2="-53.75000000000001" y1="106.04660000000001" y2="136.60240000000002" /><line opacity="0.45" stroke="#B47B12" stroke-width="2.58" x1="-71.724" x2="-35.77600000000001" y1="121.32450000000001" y2="121.32450000000001" /></g><path d="M 0 -208.12000000000003 C 87.032 -195.63280000000003, 189.2 -166.49600000000004, 189.2 -104.06000000000002 L 189.2 41.62400000000001 C 189.2 149.84640000000002, 75.67999999999999 195.63280000000003, 0 208.12000000000003 C -75.67999999999999 195.63280000000003, -189.2 149.84640000000002, -189.2 41.62400000000001 L -189.2 -104.06000000000002 C -189.2 -166.49600000000004, -87.032 -195.63280000000003, 0 -208.12000000000003 Z" fill="none" opacity="0.68" stroke="#F6FAFF" stroke-width="6.88" /></g><g transform="translate(780,555)"><text fill="#F6FAFF" font-family="Inter, Avenir Next, Segoe UI, Arial, sans-serif" font-size="168.75" font-weight="700" letter-spacing="1.6875" x="0" y="0">VaultSpend</text><line opacity="0.85" stroke="#77C6FF" stroke-width="10.098" x1="0" x2="243.0" y1="33.75" y2="33.75" /><text fill="#C9D4E6" font-family="Inter, Avenir Next, Segoe UI, Arial, sans-serif" font-size="45.900000000000006" font-weight="500" letter-spacing="14.688000000000002" opacity="0.88" x="270.0" y="60.75">SECURE EXPENSE TRACKER</text></g></svg>