<?xml version="1.0" encoding="utf-8" ?>
<svg baseProfile="full" height="1200" version="1.1" viewBox="0 0 1200 1200" width="1200" xmlns="http://www.w3.org/2000/svg" xmlns:ev="http://www.w3.org/2001/xml-events" xmlns:xlink="http://www.w3.org/1999/xlink"><defs><linearGradient id="shieldBorder" x1="0" x2="1" y1="0" y2="1"><stop offset="0.0" stop-color="#F6FAFF" stop-opacity="1.0" /><stop offset="0.35" stop-color="#D9E3F0" stop-opacity="1.0" /><stop offset="0.72" stop-color="#7D8AA0" stop-opacity="1.0" /><stop offset="1.0" stop-color="#F6FAFF" stop-opacity="1.0" /></linearGradient><linearGradient id="shieldFill" x1="0" x2="0" y1="0" y2="1"><stop offset="0.0" stop-color="#14244E" stop-opacity="1.0" /><stop offset="0.55" stop-color="#0B1737" stop-opacity="1.0" /><stop offset="1.0" stop-color="#071227" stop-opacity="1.0" /></linearGradient><linearGradient id="walletFill" x1="0" x2="1" y1="0" y2="1"><stop offset="0.0" stop-color="#253C73" stop-opacity="1.0" /><stop offset="0.55" stop-color="#0B1737" stop-opacity="1.0" /><stop offset="1.0" stop-color="#071227" stop-opacity="1.0" /></linearGradient><linearGradient id="walletEdge" x1="0" x2="1" y1="0" y2="1"><stop offset="0.0" stop-color="#F6FAFF" stop-opacity="1.0" /><stop offset="0.55" stop-color="#AAB7CB" stop-opacity="1.0" /><stop offset="1.0" stop-color="#7D8AA0" stop-opacity="1.0" /></linearGradient><linearGradient id="coinFill" x1="0" x2="1" y1="0" y2="1"><stop offset="0.0" stop-color="#FFE8A0" stop-opacity="1.0" /><stop offset="0.48" stop-color="#F3BE3B" stop-opacity="1.0" /><stop offset="1.0" stop-color="#B47B12" stop-opacity="1.0" /></linearGradient><linearGradient id="barFill" x1="0" x2="0" y1="0" y2="1"><stop offset="0.0" stop-color="#77C6FF" stop-opacity="1.0" /><stop offset="1.0" stop-color="#33A6FF" stop-opacity="1.0" /></linearGradient><radialGradient cx="50%" cy="50%" id="goldGlow" r="60%"><stop offset="0.0" stop-color="#FFE8A0" stop-opacity="0.42" /><stop offset="1.0" stop-color="#FFE8A0" stop-opacity="0.0" /></radialGradient><clipPath id="shieldClip_color_640_1210"><path d="M 0 -309.76 C 129.53600000000003 -291.1744, 281.6 -247.808, 281.6 -154.88 L 281.6 61.952 C 281.6 223.0272, 112.64000000000001 291.1744, 0 309.76 C -112.64000000000001 291.1744, -281.6 223.0272, -281.6 61.952 L -281.6 -154.88 C -281.6 -247.808, -129.53600000000003 -291.1744, 0 -309.76 Z" /></clipPath></defs><rect fill="none" height="1200" width="1200" x="0" y="0" /><g transform="translate(600,610)"><path d="M 0 -352.0 C 147.20000000000002 -330.88, 320.0 -281.6, 320.0 -176.0 L 320.0 70.4 C 320.0 253.44, 128.0 330.88, 0 352.0 C -128.0 330.88, -320.0 253.44, -320.0 70.4 L -320.0 -176.0 C -320.0 -281.6, -147.20000000000002 -330.88, 0 -352.0 Z" fill="url(#shieldBorder)" /><path d="M 0 -309.76 C 129.53600000000003 -291.1744, 281.6 -247.808, 281.6 -154.88 L 281.6 61.952 C 281.6 223.0272, 112.64000000000001 291.1744, 0 309.76 C -112.64000000000001 291.1744, -281.6 223.0272, -281.6 61.952 L -281.6 -154.88 C -281.6 -247.808, -129.53600000000003 -291.1744, 0 -309.76 Z" fill="url(#shieldFill)" /><path d="M -192.0 -190.08 C -70.4 -274.56, 51.2 -274.56, 166.4 -218.24" fill="none" opacity="0.24" stroke="#F6FAFF" stroke-linecap="round" stroke-width="24.32" /><g clip-path="url(#shieldClip_color_640_1210)"><rect fill="url(#barFill)" height="112.64" rx="10.240000000000002" width="51.2" x="-185.6" y="-112.64" /><rect fill="url(#barFill)" height="168.95999999999998" rx="10.240000000000002" width="51.2" x="-115.19999999999999" y="-140.79999999999998" /><rect fill="url(#barFill)" height="239.36" rx="10.240000000000002" width="51.2" x="-44.79999999999998" y="-176.0" /><circle cx="108.80000000000001" cy="-63.36" fill="url(#goldGlow)" r="120.64" /><circle cx="108.80000000000001" cy="-63.36" fill="url(#coinFill)" r="92.8" /><circle cx="108.80000000000001" cy="-63.36" fill="none" opacity="0.45" r="68.672" stroke="#B47B12" stroke-width="10.88" /><text fill="#B47B12" font-family="Inter, Avenir Next, Segoe UI, Arial, sans-serif" font-size="102.08" font-weight="700" opacity="0.82" text-anchor="middle" x="108.80000000000001" y="-41.088">$</text><rect fill="url(#walletFill)" height="239.36" rx="38.4" stroke="url(#walletEdge)" stroke-width="12.8" width="384.0" x="-166.4" y="7.04" /><line opacity="0.45" stroke="#F6FAFF" stroke-linecap="round" stroke-width="8.96" x1="-153.6" x2="198.4" y1="30.976000000000003" y2="30.976000000000003" /><rect fill="url(#walletEdge)" height="105.6" rx="32.0" stroke="url(#walletEdge)" stroke-width="7.68" width="166.4" x="71.67999999999998" y="117.14560000000002" /><circle cx="191.48799999999997" cy="169.9456" fill="#071227" r="20.48" /><rect fill="url(#coinFill)" height="59.84" opacity="0.95" rx="6.4" width="70.4" x="-115.2" y="150.656" /><line opacity="0.45" stroke="#B47B12" stroke-width="3.84" x1="-80.0" x2="-80.0" y1="157.8368" y2="203.3152" /><line opacity="0.45" stroke="#B47B12" stroke-width="3.84" x1="-106.75200000000001" x2="-53.248" y1="180.57600000000002" y2="180.57600000000002" /></g><path d="M 0 -309.76 C 129.53600000000003 -291.1744, 281.6 -247.808, 281.6 -154.88 L 281.6 61.952 C 281.6 223.0272, 112.64000000000001 291.1744, 0 309.76 C -112.64000000000001 291.1744, -281.6 223.0272, -281.6 61.952 L -281.6 -154.88 C -281.6 -247.808, -129.53600000000003 -291.1744, 0 -309.76 Z" fill="none" opacity="0.68" stroke="#F6FAFF" stroke-width="10.24" /></g></svg>